<svg width="20" height="20" viewBox="0 0 20 20" fill="none" xmlns="http://www.w3.org/2000/svg">
<path d="M14.887 0.352051H2.38704C1.23079 0.352051 0.303711 1.28955 0.303711 2.43538V17.0187C0.303711 18.1646 1.23079 19.1021 2.38704 19.1021H16.9704C18.1162 19.1021 19.0537 18.1646 19.0537 17.0187V4.51872L14.887 0.352051ZM9.67871 17.0187C7.94954 17.0187 6.55371 15.6229 6.55371 13.8937C6.55371 12.1646 7.94954 10.7687 9.67871 10.7687C11.4079 10.7687 12.8037 12.1646 12.8037 13.8937C12.8037 15.6229 11.4079 17.0187 9.67871 17.0187ZM12.8037 6.60205H2.38704V2.43538H12.8037V6.60205Z" fill="#5686E1"/>
</svg>
