<svg width="19" height="19" viewBox="0 0 19 19" fill="none" xmlns="http://www.w3.org/2000/svg">
<path d="M14.7083 0.125H2.20833C1.05208 0.125 0.125 1.0625 0.125 2.20833V16.7917C0.125 17.9375 1.05208 18.875 2.20833 18.875H16.7917C17.9375 18.875 18.875 17.9375 18.875 16.7917V4.29167L14.7083 0.125ZM9.5 16.7917C7.77083 16.7917 6.375 15.3958 6.375 13.6667C6.375 11.9375 7.77083 10.5417 9.5 10.5417C11.2292 10.5417 12.625 11.9375 12.625 13.6667C12.625 15.3958 11.2292 16.7917 9.5 16.7917ZM12.625 6.375H2.20833V2.20833H12.625V6.375Z" fill="white"/>
</svg>
