<svg width="15" height="15" viewBox="0 0 15 15" fill="none" xmlns="http://www.w3.org/2000/svg">
<path d="M10.8477 8.30464C10.7417 8.30464 10.6424 8.28795 10.5497 8.25457C10.457 8.22172 10.3709 8.16556 10.2914 8.08609L6.91391 4.70861C6.83444 4.62914 6.77828 4.54305 6.74543 4.45033C6.71205 4.35762 6.69536 4.25828 6.69536 4.15232C6.69536 4.04636 6.71205 3.94702 6.74543 3.8543C6.77828 3.76159 6.83444 3.6755 6.91391 3.59603L10.2914 0.218543C10.3709 0.139073 10.457 0.0829139 10.5497 0.0500662C10.6424 0.0166887 10.7417 0 10.8477 0C10.9536 0 11.053 0.0166887 11.1457 0.0500662C11.2384 0.0829139 11.3245 0.139073 11.404 0.218543L14.7815 3.59603C14.8609 3.6755 14.9171 3.76159 14.9499 3.8543C14.9833 3.94702 15 4.04636 15 4.15232C15 4.25828 14.9833 4.35762 14.9499 4.45033C14.9171 4.54305 14.8609 4.62914 14.7815 4.70861L11.404 8.08609C11.3245 8.16556 11.2384 8.22172 11.1457 8.25457C11.053 8.28795 10.9536 8.30464 10.8477 8.30464ZM0.794702 7.05298C0.569536 7.05298 0.380927 6.97669 0.228874 6.82411C0.0762915 6.67205 0 6.48344 0 6.25828V1.49007C0 1.2649 0.0762915 1.07603 0.228874 0.923444C0.380927 0.771391 0.569536 0.695364 0.794702 0.695364H5.56291C5.78808 0.695364 5.97695 0.771391 6.12954 0.923444C6.28159 1.07603 6.35762 1.2649 6.35762 1.49007V6.25828C6.35762 6.48344 6.28159 6.67205 6.12954 6.82411C5.97695 6.97669 5.78808 7.05298 5.56291 7.05298H0.794702ZM8.74172 15C8.51656 15 8.32795 14.9237 8.17589 14.7711C8.02331 14.6191 7.94702 14.4305 7.94702 14.2053V9.43709C7.94702 9.21192 8.02331 9.02305 8.17589 8.87046C8.32795 8.71841 8.51656 8.64238 8.74172 8.64238H13.5099C13.7351 8.64238 13.9237 8.71841 14.0758 8.87046C14.2283 9.02305 14.3046 9.21192 14.3046 9.43709V14.2053C14.3046 14.4305 14.2283 14.6191 14.0758 14.7711C13.9237 14.9237 13.7351 15 13.5099 15H8.74172ZM0.794702 15C0.569536 15 0.380927 14.9237 0.228874 14.7711C0.0762915 14.6191 0 14.4305 0 14.2053V9.43709C0 9.21192 0.0762915 9.02305 0.228874 8.87046C0.380927 8.71841 0.569536 8.64238 0.794702 8.64238H5.56291C5.78808 8.64238 5.97695 8.71841 6.12954 8.87046C6.28159 9.02305 6.35762 9.21192 6.35762 9.43709V14.2053C6.35762 14.4305 6.28159 14.6191 6.12954 14.7711C5.97695 14.9237 5.78808 15 5.56291 15H0.794702Z" fill="#2C78C8"/>
</svg>
