<svg width="20" height="20" viewBox="0 0 20 20" fill="none" xmlns="http://www.w3.org/2000/svg">
<g clip-path="url(#clip0_1028_5354)">
<path d="M4.44199 16.6668H3.33366C2.41699 16.6668 1.66699 15.9168 1.66699 15.0002V5.00016C1.66699 4.0835 2.41699 3.3335 3.33366 3.3335H4.44199C5.35866 3.3335 6.10866 4.0835 6.10866 5.00016V15.0002C6.10866 15.9168 5.36699 16.6668 4.44199 16.6668ZM18.3337 15.0002V5.00016C18.3337 4.0835 17.5837 3.3335 16.667 3.3335H15.5587C14.642 3.3335 13.892 4.0835 13.892 5.00016V15.0002C13.892 15.9168 14.642 16.6668 15.5587 16.6668H16.667C17.592 16.6668 18.3337 15.9168 18.3337 15.0002ZM12.2253 15.0002V5.00016C12.2253 4.0835 11.4753 3.3335 10.5587 3.3335H9.45033C8.53366 3.3335 7.78366 4.0835 7.78366 5.00016V15.0002C7.78366 15.9168 8.53366 16.6668 9.45033 16.6668H10.5587C11.4753 16.6668 12.2253 15.9168 12.2253 15.0002Z" fill="white"/>
</g>
<defs>
<clipPath id="clip0_1028_5354">
<rect width="20" height="20" fill="white"/>
</clipPath>
</defs>
</svg>
