<svg width="18" height="14" viewBox="0 0 18 14" fill="none" xmlns="http://www.w3.org/2000/svg">
<path d="M3.4415 13.6668H2.33317C1.4165 13.6668 0.666504 12.9168 0.666504 12.0002V2.00016C0.666504 1.0835 1.4165 0.333496 2.33317 0.333496H3.4415C4.35817 0.333496 5.10817 1.0835 5.10817 2.00016V12.0002C5.10817 12.9168 4.3665 13.6668 3.4415 13.6668ZM17.3332 12.0002V2.00016C17.3332 1.0835 16.5832 0.333496 15.6665 0.333496H14.5582C13.6415 0.333496 12.8915 1.0835 12.8915 2.00016V12.0002C12.8915 12.9168 13.6415 13.6668 14.5582 13.6668H15.6665C16.5915 13.6668 17.3332 12.9168 17.3332 12.0002ZM11.2248 12.0002V2.00016C11.2248 1.0835 10.4748 0.333496 9.55817 0.333496H8.44984C7.53317 0.333496 6.78317 1.0835 6.78317 2.00016V12.0002C6.78317 12.9168 7.53317 13.6668 8.44984 13.6668H9.55817C10.4748 13.6668 11.2248 12.9168 11.2248 12.0002Z" fill="white"/>
</svg>
