<svg width="10" height="17" viewBox="0 0 10 17" fill="none" xmlns="http://www.w3.org/2000/svg">
<path d="M4.22519 8.70833C4.86686 7.55 6.1002 6.86667 6.81686 5.84167C7.5752 4.76667 7.1502 2.75833 5.0002 2.75833C3.59186 2.75833 2.9002 3.825 2.60853 4.70833L0.450195 3.8C1.04186 2.025 2.6502 0.5 4.99186 0.5C6.95019 0.5 8.29186 1.39167 8.9752 2.50833C9.55853 3.46667 9.90019 5.25833 9.00019 6.59167C8.00019 8.06667 7.04186 8.51667 6.5252 9.46667C6.31686 9.85 6.23353 10.1 6.23353 11.3333H3.8252C3.81686 10.6833 3.71686 9.625 4.22519 8.70833ZM6.66686 14.6667C6.66686 15.5833 5.91686 16.3333 5.0002 16.3333C4.08353 16.3333 3.33353 15.5833 3.33353 14.6667C3.33353 13.75 4.08353 13 5.0002 13C5.91686 13 6.66686 13.75 6.66686 14.6667Z" fill="#4E84C1"/>
</svg>
